<svg version="1.1" viewBox="0.0 0.0 445.0 75.0" fill="none" stroke="none" stroke-linecap="square" stroke-miterlimit="10" xmlns:xlink="http://www.w3.org/1999/xlink" xmlns="http://www.w3.org/2000/svg"><clipPath id="p.0"><path d="m0 0l445.0 0l0 75.0l-445.0 0l0 -75.0z" clip-rule="nonzero"/></clipPath><g clip-path="url(#p.0)"><path fill="#000000" fill-opacity="0.0" d="m0 0l445.0 0l0 75.0l-445.0 0z" fill-rule="evenodd"/><path fill="#000000" d="m6.469816 44.389336l10.299213 0l0 10.299213l-10.299213 0z" fill-rule="evenodd"/><path stroke="#000000" stroke-width="1.0" stroke-linejoin="round" stroke-linecap="butt" d="m6.469816 44.389336l10.299213 0l0 10.299213l-10.299213 0z" fill-rule="evenodd"/><path fill="#000000" d="m6.469816 56.42768l10.299213 0l0 10.29921l-10.299213 0z" fill-rule="evenodd"/><path stroke="#000000" stroke-width="1.0" stroke-linejoin="round" stroke-linecap="butt" d="m6.469816 56.42768l10.299213 0l0 10.29921l-10.299213 0z" fill-rule="evenodd"/><path fill="#000000" d="m6.469816 32.35099l10.299213 0l0 10.299213l-10.299213 0z" fill-rule="evenodd"/><path stroke="#000000" stroke-width="1.0" stroke-linejoin="round" stroke-linecap="butt" d="m6.469816 32.35099l10.299213 0l0 10.299213l-10.299213 0z" fill-rule="evenodd"/><path fill="#000000" d="m6.469816 20.312647l10.299213 0l0 10.2992115l-10.299213 0z" fill-rule="evenodd"/><path stroke="#000000" stroke-width="1.0" stroke-linejoin="round" stroke-linecap="butt" d="m6.469816 20.312647l10.299213 0l0 10.2992115l-10.299213 0z" fill-rule="evenodd"/><path fill="#000000" d="m6.469816 8.2743025l10.299213 0l0 10.299212l-10.299213 0z" fill-rule="evenodd"/><path stroke="#000000" stroke-width="1.0" stroke-linejoin="round" stroke-linecap="butt" d="m6.469816 8.2743025l10.299213 0l0 10.299212l-10.299213 0z" fill-rule="evenodd"/><path fill="#000000" d="m28.798126 8.274076l0 10.2992115l-10.299213 0l0 -10.2992115z" fill-rule="evenodd"/><path stroke="#000000" stroke-width="1.0" stroke-linejoin="round" stroke-linecap="butt" d="m28.798126 8.274076l0 10.2992115l-10.299213 0l0 -10.2992115z" fill-rule="evenodd"/><path fill="#000000" d="m40.83647 8.274076l0 10.2992115l-10.299213 0l0 -10.2992115z" fill-rule="evenodd"/><path stroke="#000000" stroke-width="1.0" stroke-linejoin="round" stroke-linecap="butt" d="m40.83647 8.274076l0 10.2992115l-10.299213 0l0 -10.2992115z" fill-rule="evenodd"/><path fill="#000000" d="m52.874817 8.274076l0 10.2992115l-10.299213 0l0 -10.2992115z" fill-rule="evenodd"/><path stroke="#000000" stroke-width="1.0" stroke-linejoin="round" stroke-linecap="butt" d="m52.874817 8.274076l0 10.2992115l-10.299213 0l0 -10.2992115z" fill-rule="evenodd"/><path fill="#000000" d="m64.91316 8.274076l0 10.2992115l-10.299213 0l0 -10.2992115z" fill-rule="evenodd"/><path stroke="#000000" stroke-width="1.0" stroke-linejoin="round" stroke-linecap="butt" d="m64.91316 8.274076l0 10.2992115l-10.299213 0l0 -10.2992115z" fill-rule="evenodd"/><path fill="#000000" d="m28.798126 32.350193l0 10.29921l-10.299213 0l0 -10.29921z" fill-rule="evenodd"/><path stroke="#000000" stroke-width="1.0" stroke-linejoin="round" stroke-linecap="butt" d="m28.798126 32.350193l0 10.29921l-10.299213 0l0 -10.29921z" fill-rule="evenodd"/><path fill="#000000" d="m40.83647 32.350193l0 10.29921l-10.299213 0l0 -10.29921z" fill-rule="evenodd"/><path stroke="#000000" stroke-width="1.0" stroke-linejoin="round" stroke-linecap="butt" d="m40.83647 32.350193l0 10.29921l-10.299213 0l0 -10.29921z" fill-rule="evenodd"/><path fill="#000000" d="m52.874817 32.350193l0 10.29921l-10.299213 0l0 -10.29921z" fill-rule="evenodd"/><path stroke="#000000" stroke-width="1.0" stroke-linejoin="round" stroke-linecap="butt" d="m52.874817 32.350193l0 10.29921l-10.299213 0l0 -10.29921z" fill-rule="evenodd"/><path fill="#000000" d="m64.91316 32.350193l0 10.29921l-10.299213 0l0 -10.29921z" fill-rule="evenodd"/><path stroke="#000000" stroke-width="1.0" stroke-linejoin="round" stroke-linecap="butt" d="m64.91316 32.350193l0 10.29921l-10.299213 0l0 -10.29921z" fill-rule="evenodd"/><path fill="#000000" d="m54.614174 20.313507l10.29921 0l0 10.2992115l-10.29921 0z" fill-rule="evenodd"/><path stroke="#000000" stroke-width="1.0" stroke-linejoin="round" stroke-linecap="butt" d="m54.614174 20.313507l10.29921 0l0 10.2992115l-10.29921 0z" fill-rule="evenodd"/><path fill="#000000" d="m74.1706 44.388023l10.299217 0l0 10.299213l-10.299217 0z" fill-rule="evenodd"/><path stroke="#000000" stroke-width="1.0" stroke-linejoin="round" stroke-linecap="butt" d="m74.1706 44.388023l10.299217 0l0 10.299213l-10.299217 0z" fill-rule="evenodd"/><path fill="#000000" d="m74.1706 56.42637l10.299217 0l0 10.29921l-10.299217 0z" fill-rule="evenodd"/><path stroke="#000000" stroke-width="1.0" stroke-linejoin="round" stroke-linecap="butt" d="m74.1706 56.42637l10.299217 0l0 10.29921l-10.299217 0z" fill-rule="evenodd"/><path fill="#000000" d="m74.1706 32.349678l10.299217 0l0 10.299213l-10.299217 0z" fill-rule="evenodd"/><path stroke="#000000" stroke-width="1.0" stroke-linejoin="round" stroke-linecap="butt" d="m74.1706 32.349678l10.299217 0l0 10.299213l-10.299217 0z" fill-rule="evenodd"/><path fill="#000000" d="m74.1706 20.311335l10.299217 0l0 10.2992115l-10.299217 0z" fill-rule="evenodd"/><path stroke="#000000" stroke-width="1.0" stroke-linejoin="round" stroke-linecap="butt" d="m74.1706 20.311335l10.299217 0l0 10.2992115l-10.299217 0z" fill-rule="evenodd"/><path fill="#000000" d="m74.1706 8.27299l10.299217 0l0 10.299212l-10.299217 0z" fill-rule="evenodd"/><path stroke="#000000" stroke-width="1.0" stroke-linejoin="round" stroke-linecap="butt" d="m74.1706 8.27299l10.299217 0l0 10.299212l-10.299217 0z" fill-rule="evenodd"/><path fill="#000000" d="m93.72966 44.389336l10.29921 0l0 10.299213l-10.29921 0z" fill-rule="evenodd"/><path stroke="#000000" stroke-width="1.0" stroke-linejoin="round" stroke-linecap="butt" d="m93.72966 44.389336l10.29921 0l0 10.299213l-10.29921 0z" fill-rule="evenodd"/><path fill="#000000" d="m93.72966 56.42768l10.29921 0l0 10.29921l-10.29921 0z" fill-rule="evenodd"/><path stroke="#000000" stroke-width="1.0" stroke-linejoin="round" stroke-linecap="butt" d="m93.72966 56.42768l10.29921 0l0 10.29921l-10.29921 0z" fill-rule="evenodd"/><path fill="#000000" d="m93.72966 32.35099l10.29921 0l0 10.299213l-10.29921 0z" fill-rule="evenodd"/><path stroke="#000000" stroke-width="1.0" stroke-linejoin="round" stroke-linecap="butt" d="m93.72966 32.35099l10.29921 0l0 10.299213l-10.29921 0z" fill-rule="evenodd"/><path fill="#000000" d="m93.72966 20.312647l10.29921 0l0 10.2992115l-10.29921 0z" fill-rule="evenodd"/><path stroke="#000000" stroke-width="1.0" stroke-linejoin="round" stroke-linecap="butt" d="m93.72966 20.312647l10.29921 0l0 10.2992115l-10.29921 0z" fill-rule="evenodd"/><path fill="#000000" d="m93.72966 8.2743025l10.29921 0l0 10.299212l-10.29921 0z" fill-rule="evenodd"/><path stroke="#000000" stroke-width="1.0" stroke-linejoin="round" stroke-linecap="butt" d="m93.72966 8.2743025l10.29921 0l0 10.299212l-10.29921 0z" fill-rule="evenodd"/><path fill="#000000" d="m116.05797 8.274076l0 10.2992115l-10.29921 0l0 -10.2992115z" fill-rule="evenodd"/><path stroke="#000000" stroke-width="1.0" stroke-linejoin="round" stroke-linecap="butt" d="m116.05797 8.274076l0 10.2992115l-10.29921 0l0 -10.2992115z" fill-rule="evenodd"/><path fill="#000000" d="m128.09631 8.274076l0 10.2992115l-10.29921 0l0 -10.2992115z" fill-rule="evenodd"/><path stroke="#000000" stroke-width="1.0" stroke-linejoin="round" stroke-linecap="butt" d="m128.09631 8.274076l0 10.2992115l-10.29921 0l0 -10.2992115z" fill-rule="evenodd"/><path fill="#000000" d="m140.13466 8.274076l0 10.2992115l-10.29921 0l0 -10.2992115z" fill-rule="evenodd"/><path stroke="#000000" stroke-width="1.0" stroke-linejoin="round" stroke-linecap="butt" d="m140.13466 8.274076l0 10.2992115l-10.29921 0l0 -10.2992115z" fill-rule="evenodd"/><path fill="#000000" d="m152.173 8.274076l0 10.2992115l-10.29921 0l0 -10.2992115z" fill-rule="evenodd"/><path stroke="#000000" stroke-width="1.0" stroke-linejoin="round" stroke-linecap="butt" d="m152.173 8.274076l0 10.2992115l-10.29921 0l0 -10.2992115z" fill-rule="evenodd"/><path fill="#000000" d="m116.05797 56.426308l0 10.29921l-10.29921 0l0 -10.29921z" fill-rule="evenodd"/><path stroke="#000000" stroke-width="1.0" stroke-linejoin="round" stroke-linecap="butt" d="m116.05797 56.426308l0 10.29921l-10.29921 0l0 -10.29921z" fill-rule="evenodd"/><path fill="#000000" d="m128.09631 56.426308l0 10.29921l-10.29921 0l0 -10.29921z" fill-rule="evenodd"/><path stroke="#000000" stroke-width="1.0" stroke-linejoin="round" stroke-linecap="butt" d="m128.09631 56.426308l0 10.29921l-10.29921 0l0 -10.29921z" fill-rule="evenodd"/><path fill="#000000" d="m140.13466 56.426308l0 10.29921l-10.29921 0l0 -10.29921z" fill-rule="evenodd"/><path stroke="#000000" stroke-width="1.0" stroke-linejoin="round" stroke-linecap="butt" d="m140.13466 56.426308l0 10.29921l-10.29921 0l0 -10.29921z" fill-rule="evenodd"/><path fill="#000000" d="m152.173 56.426308l0 10.29921l-10.29921 0l0 -10.29921z" fill-rule="evenodd"/><path stroke="#000000" stroke-width="1.0" stroke-linejoin="round" stroke-linecap="butt" d="m152.173 56.426308l0 10.29921l-10.29921 0l0 -10.29921z" fill-rule="evenodd"/><path fill="#000000" d="m185.49869 44.39196l10.29921 0l0 10.299213l-10.29921 0z" fill-rule="evenodd"/><path stroke="#000000" stroke-width="1.0" stroke-linejoin="round" stroke-linecap="butt" d="m185.49869 44.39196l10.29921 0l0 10.299213l-10.29921 0z" fill-rule="evenodd"/><path fill="#000000" d="m185.49869 56.430305l10.29921 0l0 10.29921l-10.29921 0z" fill-rule="evenodd"/><path stroke="#000000" stroke-width="1.0" stroke-linejoin="round" stroke-linecap="butt" d="m185.49869 56.430305l10.29921 0l0 10.29921l-10.29921 0z" fill-rule="evenodd"/><path fill="#000000" d="m185.49869 32.352303l10.29921 0l0 10.299213l-10.29921 0z" fill-rule="evenodd"/><path stroke="#000000" stroke-width="1.0" stroke-linejoin="round" stroke-linecap="butt" d="m185.49869 32.352303l10.29921 0l0 10.299213l-10.29921 0z" fill-rule="evenodd"/><path fill="#000000" d="m185.49869 20.315271l10.29921 0l0 10.299213l-10.29921 0z" fill-rule="evenodd"/><path stroke="#000000" stroke-width="1.0" stroke-linejoin="round" stroke-linecap="butt" d="m185.49869 20.315271l10.29921 0l0 10.299213l-10.29921 0z" fill-rule="evenodd"/><path fill="#000000" d="m161.4252 8.2795515l10.29921 0l0 10.299212l-10.29921 0z" fill-rule="evenodd"/><path stroke="#000000" stroke-width="1.0" stroke-linejoin="round" stroke-linecap="butt" d="m161.4252 8.2795515l10.29921 0l0 10.299212l-10.29921 0z" fill-rule="evenodd"/><path fill="#000000" d="m183.75351 8.2793255l0 10.299213l-10.29921 0l0 -10.299213z" fill-rule="evenodd"/><path stroke="#000000" stroke-width="1.0" stroke-linejoin="round" stroke-linecap="butt" d="m183.75351 8.2793255l0 10.299213l-10.29921 0l0 -10.299213z" fill-rule="evenodd"/><path fill="#000000" d="m195.79185 8.2793255l0 10.299213l-10.29921 0l0 -10.299213z" fill-rule="evenodd"/><path stroke="#000000" stroke-width="1.0" stroke-linejoin="round" stroke-linecap="butt" d="m195.79185 8.2793255l0 10.299213l-10.29921 0l0 -10.299213z" fill-rule="evenodd"/><path fill="#000000" d="m207.8302 8.2793255l0 10.299213l-10.29921 0l0 -10.299213z" fill-rule="evenodd"/><path stroke="#000000" stroke-width="1.0" stroke-linejoin="round" stroke-linecap="butt" d="m207.8302 8.2793255l0 10.299213l-10.29921 0l0 -10.299213z" fill-rule="evenodd"/><path fill="#000000" d="m219.86855 8.2793255l0 10.299213l-10.299225 0l0 -10.299213z" fill-rule="evenodd"/><path stroke="#000000" stroke-width="1.0" stroke-linejoin="round" stroke-linecap="butt" d="m219.86855 8.2793255l0 10.299213l-10.299225 0l0 -10.299213z" fill-rule="evenodd"/><path fill="#000000" d="m229.11285 44.390648l10.299225 0l0 10.299213l-10.299225 0z" fill-rule="evenodd"/><path stroke="#000000" stroke-width="1.0" stroke-linejoin="round" stroke-linecap="butt" d="m229.11285 44.390648l10.299225 0l0 10.299213l-10.299225 0z" fill-rule="evenodd"/><path fill="#000000" d="m229.11285 56.428993l10.299225 0l0 10.29921l-10.299225 0z" fill-rule="evenodd"/><path stroke="#000000" stroke-width="1.0" stroke-linejoin="round" stroke-linecap="butt" d="m229.11285 56.428993l10.299225 0l0 10.29921l-10.299225 0z" fill-rule="evenodd"/><path fill="#000000" d="m229.11285 32.352303l10.299225 0l0 10.299213l-10.299225 0z" fill-rule="evenodd"/><path stroke="#000000" stroke-width="1.0" stroke-linejoin="round" stroke-linecap="butt" d="m229.11285 32.352303l10.299225 0l0 10.299213l-10.299225 0z" fill-rule="evenodd"/><path fill="#000000" d="m229.11285 20.31396l10.299225 0l0 10.299213l-10.299225 0z" fill-rule="evenodd"/><path stroke="#000000" stroke-width="1.0" stroke-linejoin="round" stroke-linecap="butt" d="m229.11285 20.31396l10.299225 0l0 10.299213l-10.299225 0z" fill-rule="evenodd"/><path fill="#000000" d="m229.11285 8.275615l10.299225 0l0 10.299212l-10.299225 0z" fill-rule="evenodd"/><path stroke="#000000" stroke-width="1.0" stroke-linejoin="round" stroke-linecap="butt" d="m229.11285 8.275615l10.299225 0l0 10.299212l-10.299225 0z" fill-rule="evenodd"/><path fill="#000000" d="m251.44118 8.275389l0 10.2992115l-10.299225 0l0 -10.2992115z" fill-rule="evenodd"/><path stroke="#000000" stroke-width="1.0" stroke-linejoin="round" stroke-linecap="butt" d="m251.44118 8.275389l0 10.2992115l-10.299225 0l0 -10.2992115z" fill-rule="evenodd"/><path fill="#000000" d="m263.47952 8.275389l0 10.2992115l-10.299225 0l0 -10.2992115z" fill-rule="evenodd"/><path stroke="#000000" stroke-width="1.0" stroke-linejoin="round" stroke-linecap="butt" d="m263.47952 8.275389l0 10.2992115l-10.299225 0l0 -10.2992115z" fill-rule="evenodd"/><path fill="#000000" d="m275.51785 8.275389l0 10.2992115l-10.299194 0l0 -10.2992115z" fill-rule="evenodd"/><path stroke="#000000" stroke-width="1.0" stroke-linejoin="round" stroke-linecap="butt" d="m275.51785 8.275389l0 10.2992115l-10.299194 0l0 -10.2992115z" fill-rule="evenodd"/><path fill="#000000" d="m287.5562 8.275389l0 10.2992115l-10.299225 0l0 -10.2992115z" fill-rule="evenodd"/><path stroke="#000000" stroke-width="1.0" stroke-linejoin="round" stroke-linecap="butt" d="m287.5562 8.275389l0 10.2992115l-10.299225 0l0 -10.2992115z" fill-rule="evenodd"/><path fill="#000000" d="m251.44118 56.42762l0 10.29921l-10.299225 0l0 -10.29921z" fill-rule="evenodd"/><path stroke="#000000" stroke-width="1.0" stroke-linejoin="round" stroke-linecap="butt" d="m251.44118 56.42762l0 10.29921l-10.299225 0l0 -10.29921z" fill-rule="evenodd"/><path fill="#000000" d="m263.47952 56.42762l0 10.29921l-10.299225 0l0 -10.29921z" fill-rule="evenodd"/><path stroke="#000000" stroke-width="1.0" stroke-linejoin="round" stroke-linecap="butt" d="m263.47952 56.42762l0 10.29921l-10.299225 0l0 -10.29921z" fill-rule="evenodd"/><path fill="#000000" d="m275.51785 56.42762l0 10.29921l-10.299194 0l0 -10.29921z" fill-rule="evenodd"/><path stroke="#000000" stroke-width="1.0" stroke-linejoin="round" stroke-linecap="butt" d="m275.51785 56.42762l0 10.29921l-10.299194 0l0 -10.29921z" fill-rule="evenodd"/><path fill="#000000" d="m287.5562 56.42762l0 10.29921l-10.299225 0l0 -10.29921z" fill-rule="evenodd"/><path stroke="#000000" stroke-width="1.0" stroke-linejoin="round" stroke-linecap="butt" d="m287.5562 56.42762l0 10.29921l-10.299225 0l0 -10.29921z" fill-rule="evenodd"/><path fill="#000000" d="m277.26773 44.39196l10.299194 0l0 10.299213l-10.299194 0z" fill-rule="evenodd"/><path stroke="#000000" stroke-width="1.0" stroke-linejoin="round" stroke-linecap="butt" d="m277.26773 44.39196l10.299194 0l0 10.299213l-10.299194 0z" fill-rule="evenodd"/><path fill="#000000" d="m277.26773 32.353615l10.299194 0l0 10.299213l-10.299194 0z" fill-rule="evenodd"/><path stroke="#000000" stroke-width="1.0" stroke-linejoin="round" stroke-linecap="butt" d="m277.26773 32.353615l10.299194 0l0 10.299213l-10.299194 0z" fill-rule="evenodd"/><path fill="#000000" d="m277.26773 20.315271l10.299194 0l0 10.299213l-10.299194 0z" fill-rule="evenodd"/><path stroke="#000000" stroke-width="1.0" stroke-linejoin="round" stroke-linecap="butt" d="m277.26773 20.315271l10.299194 0l0 10.299213l-10.299194 0z" fill-rule="evenodd"/><path fill="#000000" fill-opacity="0.0" d="m287.55643 -18.228346l164.6929 0l0 93.22835l-164.6929 0z" fill-rule="evenodd"/><path fill="#000000" d="m370.55643 13.014146l0 1.359375q-1.390625 0.109375 -2.34375 0.765625q-0.9375 0.65625 -1.671875 2.000001q-0.21875 0.4375 -2.296875 5.65625l-15.484375 40.78125l-1.421875 0l-12.25 -31.859373l-13.484375 31.859373l-1.359375 0l-16.25 -40.34375q-2.484375 -6.09375 -3.46875 -7.359376q-0.984375 -1.28125 -3.3125 -1.5l0 -1.359375l21.4375 0l0 1.359375q-2.59375 0.0625 -3.453125 0.78125q-0.84375 0.703125 -0.84375 1.765626q0 1.390625 1.78125 5.875l9.6875 23.984373l7.765625 -18.734373l-2.03125 -5.25q-1.6875 -4.3125 -2.59375 -5.75q-0.90625 -1.437501 -2.09375 -2.046876q-1.1875 -0.625 -3.484375 -0.625l0 -1.359375l23.953125 0l0 1.359375q-2.515625 0.03125 -3.609375 0.390625q-0.765625 0.265625 -1.203125 0.875q-0.4375 0.59375095 -0.4375 1.359376q0 0.828125 1.640625 5.140625l9.0 23.390623l8.0625 -21.171873q1.265625 -3.28125 1.5625 -4.484375q0.296875 -1.203125 0.296875 -2.21875q0 -1.5 -1.03125 -2.359376q-1.015625 -0.859375 -3.890625 -0.921875l0 -1.359375l12.828125 0zm27.927094 31.171875l-18.703125 0q0.328125 6.78125 3.609375 10.71875q2.515625 3.03125 6.046875 3.03125q2.1875 0 3.96875 -1.21875q1.796875 -1.234375 3.828125 -4.40625l1.25 0.8125q-2.78125 5.640625 -6.140625 8.0q-3.34375 2.34375 -7.75 2.34375q-7.578125 0 -11.484375 -5.828125q-3.140625 -4.703125 -3.140625 -11.671875q0 -8.515625 4.609375 -13.5625q4.625 -5.062498 10.8125 -5.062498q5.171875 0 8.984375 4.25q3.8125 4.249998 4.109375 12.593748zm-8.96875 -2.4375q0 -5.875 -0.640625 -8.0625q-0.640625 -2.187498 -1.984375 -3.312498q-0.765625 -0.65625 -2.046875 -0.65625q-1.890625 0 -3.09375 1.859375q-2.15625 3.249998 -2.15625 8.890623l0 1.28125l9.921875 0z" fill-rule="nonzero"/><path fill="#000000" d="m415.94763 13.014146l0 18.78125q4.296875 -4.453125 9.390625 -4.453125q3.5 0 6.59375 2.0625q3.109375 2.0625 4.859375 5.859373q1.75 3.78125 1.75 8.734375q0 5.578125 -2.234375 10.140625q-2.21875 4.5625 -5.9375 6.953125q-3.71875 2.375 -8.484375 2.375q-2.78125 0 -4.9375 -0.875q-2.140625 -0.875 -4.21875 -2.84375l-5.640625 3.6875l-1.25 0l0 -43.34375q0 -2.953125 -0.25 -3.640625q-0.359375 -1.031251 -1.15625 -1.515626q-0.78125 -0.5 -2.640625 -0.5625l0 -1.359375l14.15625 0zm0 22.03125l0 15.15625q0 4.625 0.21875 5.90625q0.359375 2.15625 1.734375 3.484375q1.390625 1.328125 3.546875 1.328125q1.859375 0 3.1875 -1.046875q1.328125 -1.0625 2.21875 -4.203125q0.890625 -3.140625 0.890625 -11.296875q0 -7.84375 -1.96875 -10.75q-1.421875 -2.124998 -3.828125 -2.124998q-3.125 0 -6.0 3.546873z" fill-rule="nonzero"/></g></svg>